<?xml version="1.0" encoding="UTF-8"?>
<svg id="Layer_1" data-name="Layer 1" xmlns="http://www.w3.org/2000/svg" viewBox="0 0 543.72 581.78">
  <defs>
    <style>
      .cls-1 {
        fill: #d4d2d2;
      }

      .cls-2 {
        fill: #272626;
      }

      .cls-3 {
        fill: #a19e9e;
      }

      .cls-4 {
        fill: #d3d1d1;
      }

      .cls-5 {
        fill: #615e5e;
      }

      .cls-6 {
        fill: #8d8a8b;
      }

      .cls-7 {
        fill: #868382;
      }

      .cls-8 {
        fill: #aba8a8;
      }

      .cls-9 {
        fill: #646060;
      }

      .cls-10 {
        fill: #6a6868;
      }

      .cls-11 {
        fill: #afacac;
      }

      .cls-12 {
        fill: #c8c7c7;
      }

      .cls-13 {
        fill: #bdbbbb;
      }

      .cls-14 {
        fill: #949191;
      }

      .cls-15 {
        fill: #0a0c0c;
      }
    </style>
  </defs>
  <path class="cls-2" d="M500.46,0c.43.14.43.31,0,.5-.04.4-.2.99-.48.99-92.25.33-187.92.33-280.19,0l-.62-.99c-.43-.14-.43-.31,0-.5h281.29Z"/>
  <path class="cls-7" d="M498.48,581.29c.43.14.43.31,0,.5H221.16c-.43-.14-.43-.31,0-.5.04-.4.2-.99.48-.99,90.94-.33,185.26-.33,276.22,0l.62.99Z"/>
  <path class="cls-10" d="M.5,321.22c-.14.43-.31.43-.5,0v-60.66c.14-.43.31-.43.5,0,.58,1.18.96,2.42,1.12,3.72-.12,17.72-.22,35.46-.31,53.17,0,1.3-.4,2.55-.81,3.77Z"/>
  <path class="cls-13" d="M.5,259.57c-.14.43-.31.43-.5,0v-.99l.99-.99c1.31.58.9,1.86-.5,1.99Z"/>
  <path class="cls-12" d="M.99,324.21c-.17-.34-.72-.68-.99-.99v-.99c.14-.43.31-.43.5,0,1.46-.43,2.1,1.59.5,1.99Z"/>
  <path class="cls-11" d="M221.16,581.29v.5h-2.48c-.43-.14-.43-.31,0-.5.52-1.39,1.98-1.42,2.48,0Z"/>
  <path class="cls-11" d="M500.96,581.29c.43.14.43.31,0,.5h-2.48v-.5c.5-1.42,1.96-1.39,2.48,0Z"/>
  <path class="cls-8" d="M218.18,0c.43.14.43.31,0,.5-.37,1.41-1.6,1.37-1.99,0v-.5h1.99Z"/>
  <path class="cls-3" d="M502.95,0v.5c-.49,1.17-.99,1.17-1.49,0-.43-.14-.43-.31,0-.5h1.49Z"/>
  <path class="cls-5" d="M219.17,0v.5c-.15.95-.54.89-.99,0v-.5h.99Z"/>
  <path class="cls-9" d="M501.46,0v.5c-.15.94-.54.89-.99,0v-.5h.99Z"/>
  <path class="cls-6" d="M.5,260.56h-.5v-.99h.5c.94.28.95.71,0,.99Z"/>
  <path class="cls-14" d="M.5,322.22h-.5v-.99h.5c.94.28.94.72,0,.99Z"/>
  <path class="cls-4" d="M218.67,581.29v.5h-.99v-.5c.11-1,.61-.96.99,0Z"/>
  <path class="cls-1" d="M501.95,581.29v.5h-.99v-.5c.12-1,.61-.96.99,0Z"/>
  <path d="M216.19.5c.65-.06,1.33.03,1.99,0,.33-.02.66.01.99,0h281.29c.33.01.66-.02.99,0,.49.03,1-.04,1.49,0,20.92,1.78,38.62,20.35,40.74,41.03l.03,497.76c-1.87,21.56-20.08,40.3-41.77,42-.33.03-.66-.02-.99,0-.82.05-1.66-.03-2.48,0H221.16c-.83-.03-1.66.05-2.48,0-.33-.02-.67.03-.99,0-22.15-1.73-38.9-19.74-41.75-41.27-.48-31.72-.43-64.82,0-96.47,16.86-.3,33.89-.38,51.08-.25.23-.63.43-.5.61.25.38,28.51.55,57.19.5,86.02l.48-.99h262.8l.62.99-.99-.48V52.84l.99-.63-.48.99H228.74l-.62-.99-.29,86.71c-.47.57-.81.34-.81-.43l-51.08-.25-.02-96.24c1.78-20.65,19.49-39.52,40.27-41.5Z"/>
  <path class="cls-15" d="M278.81,247.63l-.99-.46v-36.48l.99-.6c-2.1-1.79,1.36-4.66,3.12-5.75,2.23-1.38,5.17-2.05,7.65-.82l121.51,79.92c4.51,3.95,4.38,10.83,0,14.81l-120.53,79.13c-3.44,1.68-7.37,1.69-10.1-1.22-1.14-1.21-3.11-3.92-1.64-5.22-.31-12.18-.4-24.42-.25-36.7-.22.64-.39.46-.54-.34h-49.64c-.76.97-1.52.97-2.28,0l-214.28.05-1.39-.3c-6.15-1.69-6.94-4.4-9.44-9.45.19-.73-.43-1.49-.5-1.99-.04-.32.02-.67,0-.99-1.15-19.82.86-40.73,0-60.66.03-.33-.04-.67,0-.99.04-.31.38-1.55.5-1.99,1.61-5.86,6.02-9.65,12.16-9.96,71.32-.02,142.65.09,213.97.02.28-.95.71-.95.99,0"/>
</svg>