<?xml version="1.0" encoding="UTF-8"?>
<svg id="Layer_1" data-name="Layer 1" xmlns="http://www.w3.org/2000/svg" viewBox="0 0 581.06 581.06">
  <defs>
    <style>
      .cls-1 {
        fill: none;
        stroke: #231f20;
        stroke-miterlimit: 10;
        stroke-width: 50px;
      }
    </style>
  </defs>
  <path class="cls-1" d="M536.44,265.48h-19.72c-4.11-37.57-17.36-72.4-37.49-102.2l19.2-19.2c7.66-7.66,7.66-20.09,0-27.75l-40.27-40.27c-7.66-7.66-20.09-7.66-27.75,0l-20.62,20.62c-21.59-13.31-45.57-23.11-71.16-28.62v-23.45c0-10.84-8.79-19.62-19.62-19.62h-56.95c-10.84,0-19.62,8.79-19.62,19.62v23.45c-25.58,5.5-49.56,15.3-71.16,28.62l-20.62-20.62c-7.66-7.66-20.09-7.66-27.75,0l-40.27,40.27c-7.66,7.66-7.66,20.09,0,27.75l19.2,19.2c-20.13,29.8-33.38,64.62-37.49,102.2h-19.72c-10.84,0-19.62,8.79-19.62,19.62v56.95c0,10.84,8.79,19.62,19.62,19.62h29.7c5.59,17.01,13.14,33.13,22.37,48.11l-14.05,14.05c-7.66,7.66-7.66,20.09,0,27.75l40.27,40.27c7.66,7.66,20.09,7.66,27.75,0l12.63-12.63c23.61,15.95,50.37,27.57,79.15,33.76v23.45c0,10.84,8.79,19.62,19.62,19.62h56.95c10.84,0,19.62-8.79,19.62-19.62v-23.45c28.78-6.19,55.55-17.81,79.15-33.76l12.63,12.63c7.66,7.66,20.09,7.66,27.75,0l40.27-40.27c7.66-7.66,7.66-20.09,0-27.75l-14.05-14.05c9.23-14.97,16.77-31.1,22.37-48.11h29.7c10.84,0,19.62-8.79,19.62-19.62v-56.95c0-10.84-8.79-19.62-19.62-19.62Z"/>
  <circle class="cls-1" cx="290.53" cy="290.53" r="120.88"/>
</svg>