<?xml version="1.0" encoding="UTF-8"?>
<svg id="Layer_1" data-name="Layer 1" xmlns="http://www.w3.org/2000/svg" viewBox="0 0 824.56 515.29">
  <defs>
    <style>
      .cls-1 {
        fill: none;
        stroke: #231f20;
        stroke-miterlimit: 10;
        stroke-width: 50px;
      }
    </style>
  </defs>
  <path class="cls-1" d="M583.46,490.29c.98-7.43,1.49-15.01,1.49-22.71,0-95.36-77.3-172.66-172.66-172.66s-172.66,77.3-172.66,172.66c0,7.7.51,15.28,1.49,22.71h342.35Z"/>
  <path class="cls-1" d="M238.69,406.13c.61-4.62.92-9.33.92-14.11,0-59.26-48.04-107.31-107.31-107.31s-107.31,48.04-107.31,107.31c0,4.79.32,9.5.92,14.11h212.77Z"/>
  <path class="cls-1" d="M798.64,406.13c.61-4.62.92-9.33.92-14.11,0-59.26-48.04-107.31-107.31-107.31s-107.31,48.04-107.31,107.31c0,4.79.32,9.5.92,14.11h212.77Z"/>
  <circle class="cls-1" cx="412.28" cy="125.34" r="100.34"/>
  <circle class="cls-1" cx="132.31" cy="169.5" r="56.17"/>
  <circle class="cls-1" cx="692.26" cy="169.5" r="56.17"/>
</svg>