<?xml version="1.0" encoding="UTF-8"?>
<svg xmlns="http://www.w3.org/2000/svg" viewBox="0 0 1165 1444">
  <defs>
    <style>
      .cls-1 {
        fill: #fff200;
      }

      .cls-2 {
        stroke: #35bf1d;
      }

      .cls-2, .cls-3 {
        stroke-miterlimit: 10;
      }

      .cls-3 {
        fill: none;
        stroke: #fff200;
        stroke-width: 5px;
      }

      .cls-4 {
        fill: #cebf0d;
      }
    </style>
  </defs>
  <g id="Layer_3" data-name="Layer 3">
    <path class="cls-3" d="M547.94,761.85c-10.9,4.55-28.75,12.01-43.91,29.11-3.47,3.91-10.48,12.99-24.51,31.15-13.92,18.03-16.33,21.43-20.43,21.45-3.78.02-12.52-2.84-27.57-49.02-12.77-39.16-17.51-70.92-19.4-84.77-6.37-46.59-9.56-69.88-3.57-90.38,9.65-33.07,31.06-53.52,42.38-64.34,30.27-28.92,62.58-39.28,84.26-45.96,33.33-10.27,89.71-27.65,140.94-3.57,44.56,20.95,64.77,63.65,87.32,55.15,11.75-4.43,11.16-17.87,24-22.47,18.97-6.8,43.88,14.08,61.28,31.66,57.37,58,43.23,90.6,96,158.15,40.49,51.84,60.74,77.76,83.74,95.64,3.49,2.71,23.21,17.83,32.68,43.4,4.55,12.29,4.02,19.65,3.57,22.98-2.19,16.43-14.87,30.15-28.6,35.74-3.96,1.61-11.74,4.07-45.96-3.57-9.4-2.1-25.31-5.97-64.34-18.89-21.66-7.17-37.08-12.71-42.89-14.81-24.05-8.69-36.07-13.04-48-18.38-15.75-7.06-28.72-14.58-54.64-29.62-12.74-7.39-28.13-16.34-48-29.11-30.03-19.29-32.34-22.9-52.09-34.21-21.91-12.56-32.86-18.83-46.47-22.47-41.06-10.97-76.59,3.31-85.79,7.15Z"/>
  </g>
  <g id="Layer_4" data-name="Layer 4">
    <path class="cls-1" d="M885.98,883.66c-9.97-6.31-12.02-7.24-19.15-11.74-3.25-2.05-12.96-8.25-23.74-16.34-9.31-6.99-8.41-7.11-29.11-24-20.32-16.58-13.72-10.36-19.4-15.32-8.29-7.24-11.56-11.06-18.64-13.02-2.21-.61-10.48-2.9-16.34,1.53-.7.53-3.6,2.72-4.34,6.38-.27,1.35-.26,2.96,1.53,7.91,2.6,7.18,4.7,9.68,4.09,10.21-.9.79-6.85-3.37-10.72-9.45-1.49-2.34-3.01-4.71-3.32-8.17-.54-5.93,2.86-10.65,3.83-12,3.1-4.31,5.31-3.95,6.38-7.15,1.65-4.92-2.1-10.23-2.81-11.23-1.42-2-2.43-2.53-13.28-8.68-8.27-4.68-10.12-5.76-13.53-6.13-4.17-.45-7.55.48-7.66,0-.12-.53,3.89-2.24,7.91-3.06,12.24-2.49,23.18,3.57,25.79,5.11,2.07,1.22,7.83,4.7,12.77,11.23,4.46,5.92,4.65,9.58,9.45,12.51,4.13,2.53,6.13,1.11,10.98,3.32,6.01,2.73,8.89,7.6,11.23,10.98,2.95,4.25,9.63,9.98,22.98,21.45,3.55,3.05,13.14,9.9,32.17,23.49,18.18,12.98,12.12,8.51,24.51,17.36,16.2,11.56,17.09,12.4,21.45,14.81,4.08,2.26,10.02,5.25,20.68,11.23,8.38,4.7,9.34,5.45,9.19,5.87-.51,1.45-14.03-.51-26.81-6.89-4.11-2.05-3.49-2.24-16.09-10.21Z"/>
  </g>
  <g id="Layer_2" data-name="Layer 2">
    <path class="cls-1" d="M482,935c2.85-1.64-5.48-14.72-7-40-1.58-26.32,5.43-45.8,7-50,6.93-18.47,17.2-29.76,30-44,9.03-10.05,19.64-21.85,36.55-32.18,27.13-16.56,47.67-15.38,47.45-19.82-.3-5.97-37.76-14.62-73-3-6.46,2.13-20.41,6.88-34,19-18.08,16.12-25.57,34.77-28,42-6.36,18.97-3.5,30.58-6.51,31.06-1.71.28-6.39-2.88-31.66-99.06-9.12-34.71-11.98-47.48-12.77-65.87-.68-15.95-1.35-35.45,6.13-59.23,10.08-32.07,28.89-52.61,37.79-61.28,23.38-22.78,47.83-31.35,65.36-37.28,43.9-14.84,81.2-10.77,101.14-8.38,16,1.92,37.95,4.74,63.29,16.55,4.88,2.28,17.79,10.23,43.4,26.04,28.26,17.45,42.5,26.26,48,30.64,16.49,13.14,30.67,24.43,40.85,44.94,3.1,6.25,12.1,24.93,10.72,49.02-1.41,24.69-12.78,38.67-10.72,39.83,2.92,1.65,30.08-24.11,32.42-60.78,1.04-16.34-3.2-29.18-5.69-35.39-15.01-37.44-54.16-53.16-53.74-53.81.41-.64,40.47,10.86,65.53,48.37,15.91,23.81,10.06,34.59,31.47,74.63,8.79,16.44,16.84,27.75,29,45,14.03,19.89,25.21,33.2,47,59,39.09,46.28,51.8,56.82,57,61,9.29,7.46,20.13,20.9,39,26,4.75,1.28,21.22,5.73,28-2,4.93-5.62,2.46-15.1,0-24-13.03-47.15-19.21-61.37-19.21-61.37-21.22-48.83-22.86-51.85-27.11-63.88-14.09-39.88-11.99-51.57-10.82-56.44,3.19-13.22,8.61-13.74,25.14-40.3,8.43-13.54,17.92-28.79,25-49,2.01-5.73,10.35-30.48,10.21-64.14-.1-25.71-5.1-44.78-8.17-56.16-5.48-20.35-13.34-48.32-36.23-76.39-8.58-10.52-21.24-26.03-42.92-37.49-34.89-18.43-61.97-9.88-65.89-21.83-3.23-9.85,14.47-17.82,40-48,25.89-30.61,22.81-40.68,49.38-69.06,15.18-16.21,24.19-25.84,39.83-32.68,34.46-15.08,67.32-1.85,68.43-6.46,1-4.15-25.13-16.78-56.64-22.79-7.53-1.44-36.73-6.26-79,0-8.48,1.26-40.81,6.45-83,26-57.43,26.61-92.21,60.23-95,57-2.36-2.74,27.6-21.16,44.02-60.21,10.16-24.16,3.37-28.24,15.21-77.33,8.64-35.83,15.94-48.95,9.3-55.1-6.78-6.29-21.76.56-53.53,14.64-89.07,39.46-80.68,34.06-89.96,39.49-46.78,27.36-77.07,57.52-91.91,72.51-22.41,22.62-33.61,33.93-41.13,46-9.03,14.5-14.33,27.86-29.5,38-11.65,7.78-22.91,9.54-28.56,10.5,0,0-36.26,6.17-95.94,27.5-66.59,23.8-98.27,99.68-108,123-15.44,36.98-17.85,67.47-20,98-5.44,77.23,11.8,135.28,34,210,24.17,81.34,47.79,124.08,57,140,25.95,44.86,56.04,81.86,61,79Z"/>
  </g>
  <g id="Layer_5" data-name="Layer 5">
    <path class="cls-4" d="M612.28,263.09c1.56,1.69,13.07-12.5,34.72-17.36,10.26-2.3,14.25-.59,33.7,0,0,0,23.39.71,48.79-1.81,26.07-2.59,39.1-3.89,52.31-11.46,16.04-9.2,24.78-22.03,30.64-30.64,8.25-12.12,12.31-24.08,20.43-48,6.39-18.82,9.58-28.23,9.19-35.74-.6-11.71-4.79-20.09,0-30.64,3.56-7.83,9.18-10.5,8.17-12.26-1.87-3.25-22.6,3.65-41.87,14.3-17.17,9.48-17.9,13.49-33.7,23.49-30.81,19.49-55.63,21.73-54.9,25.53.59,3.04,17,4.33,32.48-.56,16.14-5.1,24.49-14.79,25.48-13.73,1.46,1.56-14.93,24.59-42.55,44.53-17.96,12.97-20.63,10.16-52.43,30.02-24.1,15.06-35.35,24.65-39.83,28.6-18.9,16.63-32.35,33.9-30.64,35.74Z"/>
    <path class="cls-4" d="M857.09,225.59c-.04,1.38,7.97.89,19.19,5.58,9.96,4.16,11.27,7.85,22.21,12.26,7.25,2.92,11.01,4.43,16.09,4.6,17.09.54,27.26-14.96,32.17-11.49,1.23.87,1.7,2.64,0,18.38-1.74,16.13-2.93,20.84-1.53,21.45,1.75.77,6.2-5.49,16.85-22.21,15.26-23.95,16.62-27.57,23.74-37.53,9.09-12.71,14.75-20.64,24.51-28.34,19.6-15.47,38.3-16.29,37.79-19.48-.56-3.49-23.21-4.74-46.21,0-14.52,2.99-24.74,7.47-45.19,16.42-9.16,4.01-21.5,9.46-36.77,18.38-14.36,8.4-13.69,9.57-21.45,13.02-21.77,9.69-41.34,6.82-41.4,8.98Z"/>
    <path class="cls-4" d="M1027.85,904.38c-.79-1.88-1.35-3.21-1.36-5.11-.02-4.01,2.45-6.95,10.21-14.3,7.62-7.21,11.43-10.82,14.64-12.94,6.47-4.26,11.74-6.17,16.34-7.83,8.47-3.06,10.92-2.52,12.26-2.04,5.73,2.04,7.75,8.89,7.83,9.19,1.58,5.67-1.57,8.13-5.45,21.79-1.68,5.91-1.63,7.36-4.09,15.66-2.88,9.74-4.2,11.98-6.47,13.35-1.34.8-3.17,1.4-12.6,0-10.09-1.5-15.13-2.25-19.06-4.5-2.59-1.48-9.05-5.66-12.26-13.28Z"/>
    <path class="cls-4" d="M717.47,453.72c.43,1.78,14.82-3.24,37.11,1.02,2.62.5,9.06,1.84,17.02,4.77,11.47,4.21,13.89,7.23,29.62,15.66,18.07,9.68,19,7.87,27.57,14.3,6.53,4.89,11.73,10.22,18.38,17.02,9.88,10.11,11.17,13.02,17.36,17.02,7.31,4.73,9.58,3.29,20.09,7.49,13.17,5.26,21.82,12.39,34.04,22.47,9.01,7.42,13.51,11.14,17.7,17.02,6.13,8.6,4.67,11.12,12.26,26.21,6.6,13.13,8.79,13.36,14.64,25.87,4.99,10.67,8.06,20.46,8.17,20.43.15-.05-7.82-17.91-9.53-41.19-.16-2.18-1.21-16.47,1.36-17.02.75-.16,2.11.78,8.17,13.96,5.17,11.24,6.31,15.19,9.19,21.45,5.45,11.84,13.22,23.48,14.64,22.81,1.29-.61-2.62-11.5-9.87-31.66-5.69-15.81-7.1-18.43-10.55-29.28-4.14-13.01-3.24-12.81-6.81-23.83-4.78-14.79-6.91-16.72-13.62-34.72-6.16-16.52-4.96-16.48-10.21-30.16-5.69-14.83-11.2-25.54-15.32-33.5-3.58-6.91-12.12-22.92-25.53-41.53-5.48-7.61-11.32-15.02-21.11-21.11-4.97-3.09-15.24-8.5-17.7-5.79-3,3.29,7.06,16.88,8.17,18.38,12.21,16.5,27.24,23.6,26.21,25.53-.73,1.38-8.33-2.45-21.82-3.63-5.29-.47-14.63-1.29-15.68,1.59-.9,2.49,4.74,6.74,11.62,11.91,6.06,4.56,12.14,8.13,13.96,9.19,8.3,4.82,11.82,5.96,11.57,7.15-.39,1.88-9.14-1.25-20.43,2.04-4.52,1.32-11.13,5.32-24.17,13.28-3.43,2.09-4.56,4.44-7.15,4.43-5.3-.04-7.39-7.7-12.6-14.3-6.89-8.72-19.34-12.4-44.26-19.74-11.06-3.26-16.59-4.89-21.11-5.45-28.09-3.45-51.97,9.57-51.4,11.91Z"/>
    <circle class="cls-2" cx="918.49" cy="511.22" r="17.87"/>
  </g>
  <g id="Layer_6" data-name="Layer 6">
    <path class="cls-4" d="M299.77,1043.34c33.88,57.62,71.52,88.56,97.59,105.55,28.57,18.62,54.71,27.96,55.94,25.86,1.34-2.3-28.2-16.63-49.36-50.04-8.76-13.84-15.45-29.93-13.28-31.32,2.93-1.87,23.78,24.94,65.36,78.64,23.94,30.92,25.17,33.28,33.04,41.17,23.37,23.39,46.04,36.09,67.72,48.02,0,0,36.96,20.37,75.23,32.68,113.48,36.51,264.3,17.72,264.17,12.6-.08-3.3-62.8,3.56-156.51-21.11-18.03-4.75-33.39-9.66-45.43-13.83-14.73-10.61-23.19-19.65-37.37-34.17-25.3-25.9-54.78-56.08-55.83-55.15-1.19,1.06,28.05,47.29,80.68,81.7,20.78,13.59,40.14,21.28,53.45,26.55,17.28,6.85,44.28,17.34,81.36,21.45,8.28.92,37.73,3.8,76.6-2.04,63.27-9.52,110.68-36.03,109.62-39.15-.68-2.01-20.86,7.38-50.38,3.06-14.23-2.08-24.27-6.42-29.44-8.58-43.21-18.1-50.4-12.27-119.67-38.06-50.42-18.77-76.32-32.92-84.43-37.45-16.38-9.14-28.95-17.39-32-19.4-25.82-17.04-31.06-24.03-65.7-49.7-14.79-10.96-26.73-19.24-41.19-29.28-28.96-20.09-33.76-22.41-44.6-30.3-18.84-13.73-33.1-29.24-61.62-60.26-32.04-34.85-42.85-50.87-72.17-71.49-9.76-6.86-17.34-11.26-19.06-12.26-6.53-3.76-71.61-41.28-96-26.89-22.67,13.38-18.82,76.72,13.28,153.19Z"/>
    <path class="cls-3" d="M599.11,1100.81c37.05,29.96,43.69,35.45,55.66,44.43,18.75,14.06,31.84,23.78,50.04,34.72,23.42,14.08,45.74,23.17,90.38,41.36,26.51,10.8,45.05,18.31,71.49,27.06,19.39,6.42,40.7,13.66,67.4,19.4,25.44,5.47,37.82,6.01,50.04,4.6,13.73-1.59,23.32-5.2,24-3.57,1.04,2.48-19.3,12.69-46.47,27.06-50.19,26.55-50.39,28.5-88.34,47.49-38.9,19.47-51.32,23.74-60.77,26.55-15.45,4.6-27.27,6.58-49.02,10.21-19.4,3.24-23.62,3.18-69.96,8.68-45.24,5.37-49.61,6.42-62.81,6.13-12.7-.28-29.24-1.71-54.13-7.66-42.6-10.18-71.38-24.44-106.72-40.85-94.52-43.87-82.27-31.69-113.36-50.04-66.38-39.17-100.97-82.15-108.26-91.4-16.93-21.52-32.91-41.84-42.38-74.04-12.72-43.23-5.38-79.55,0-106.21,8.81-43.62,14.85-73.56,39.83-90.38,13.69-9.22,42.33-8.48,99.06-6.64,64.15,2.09,76.16,7.16,83.23,10.76,15.02,7.64,14.25,11.94,55.66,56.13,23.8,25.4,45.51,48.44,75.57,74.04,2.3,1.96-.31-.29,39.83,32.17Z"/>
    <path class="cls-1" d="M455,253.38c1.97,7.98-29.92,13.9-65.11,43.66-39.15,33.11-55.92,73.37-65.87,97.28-20.31,48.75-22.39,89.85-23.74,122.54-2.25,54.08,5.62,92.71,21.45,167.76,19.71,93.45,30.88,141.05,65.11,190.72,10.03,14.55,23.96,31.2,51.83,64.51,26.41,31.57,49.07,58.64,77.96,87.49,55.28,55.2,95.06,79.27,93.11,82.06-2.51,3.61-69.3-35.66-125.96-81.05-23.69-18.98-35.53-28.47-48.68-42.78-24.46-26.64-36.65-49.64-44.09-46.74-4.53,1.76-4.62,12.08-4.77,28.6-.07,8.02-.1,19.74,3.4,35.4,5.86,26.22,17.55,45.29,24.17,54.81,18.45,26.54,37.92,37.03,36.43,39.15-1.76,2.5-29.85-10.74-56.17-33.7-14.41-12.57-23.28-23.7-35.66-39.22-17.14-21.49-29.31-36.75-39.77-60.09-8.13-18.15-10.55-30.76-13.95-30.31-4.24.55-5.58,20.81-4.58,36.08.28,4.3,1.29,16.53,8.6,39.83,5.17,16.49,10.11,32.23,20.29,49.79,16.55,28.56,34.29,39.88,32.4,42.21-2.55,3.13-35.89-15.69-63.7-45.01-6.31-6.65-13.87-14.62-21.74-26.99-20.96-32.91-20.96-60.48-26.78-60.14-5.11.3-8.85,21.72-8.32,38.37.48,14.97,4.44,26.47,7.28,34.53,4.29,12.18,9.09,20.82,15.39,31.58,19.4,33.11,29.09,49.66,40,62.21,15.45,17.78,30.2,29.32,39.83,36.77,8.06,6.24,17.11,13.18,30.3,20.43,19.75,10.85,32.07,13.2,31.72,14.64-.63,2.52-39.85.37-79.85-18.16-24.66-11.43-44.49-26.74-47.19-28.84-9.27-7.23-17.36-14.66-36.31-29.19-23.53-18.05-25.55-17.71-25.98-17.25-.91.94,6.78,11.37,22.21,32.17,15.79,21.29,13.51,18.98,22.98,31.4,3.59,4.72,15.46,20.14,32.94,40.6,19.45,22.75,29.17,34.13,42.04,46.13,13.67,12.74,27.41,25.36,48.34,36.77,1.68.92,11.79,5.94,32,16,12.85,6.39,19.44,9.67,27.57,13.62,16.74,8.12,28.95,13.78,33.02,15.66,5.02,2.32,12.11,5.59,18.72,8.51,6.92,3.05,29.26,13.04,61.02,23.4,27,8.81,40.1,11.66,39.83,13.02-.58,2.92-61.56-7.07-64.09-7.49-33.29-5.49-56.06-9.25-86.81-17.79-29.69-8.25-52.14-14.48-80.52-29.19-9.16-4.75-33.84-18.1-61.18-41.28-21.1-17.89-36.29-36.97-42.81-45.19-18.9-23.85-26.91-40.29-30.3-38.81-3.66,1.6,2.11,22.34,7.83,42.89,5.17,18.6,8.93,31.86,17.02,48.34,9.99,20.36,19.35,30.9,18.49,31.58-1.51,1.18-31.64-29.6-58.48-69.45-6.71-9.96-17.82-28.76-51.15-101.11-24.13-52.39-17.47-43.84-61.28-147.06-16.16-38.07-23.39-54.15-30.64-81.89-6.76-25.89-9.4-46.13-13.79-79.73-5.53-42.37-8.29-63.56-7.66-92.62.27-12.51,1.55-45.41,10.72-86.62,3.99-17.93,7.64-34.3,16.09-55.15,16.54-40.83,36.29-61.28,32.17-65.11-3.72-3.45-23.38,9.81-38.3,24.51-24.83,24.47-32.33,48.78-36,47.49-3.93-1.38,1.48-30.37,10.72-61.28,8.08-27.03,21.04-62.01,43.66-103.4,10.34-18.92,21.5-39.35,40.6-64.34,9.68-12.67,34.95-44.25,75.83-76.6,20.99-16.61,42.74-33.81,76.6-48.26,28.8-12.29,52.19-16.53,71.88-19.98,38.38-6.72,97.06-11.39,99.7-.7Z"/>
  </g>
</svg>