<?xml version="1.0" encoding="UTF-8"?>
<svg xmlns="http://www.w3.org/2000/svg" viewBox="0 0 624.7 559.38">
  <defs>
    <style>
      .cls-1, .cls-2, .cls-3 {
        fill: #fff;
      }

      .cls-4 {
        fill: #ed1c24;
      }

      .cls-5 {
        fill: #1e6f42;
      }

      .cls-6 {
        fill: #65bc46;
      }

      .cls-2 {
        stroke: #fff;
        stroke-width: 15px;
      }

      .cls-2, .cls-7 {
        stroke-miterlimit: 10;
      }

      .cls-8 {
        fill: #ededed;
      }

      .cls-7 {
        fill: none;
        stroke: #1e6f42;
        stroke-width: 40px;
      }

      .cls-3 {
        font-family: MyriadPro-Regular, 'Myriad Pro';
        font-size: 60.98px;
      }
    </style>
  </defs>
  <g id="Layer_11" data-name="Layer 11">
    <rect class="cls-7" x="112.39" y="21.44" width="184.31" height="233.97" rx="20" ry="20"/>
    <rect class="cls-5" x="142.93" y="114.47" width="162.96" height="10.51" rx="5.26" ry="5.26"/>
    <rect class="cls-5" x="98.69" y="133.45" width="251.15" height="10.51" rx="5.26" ry="5.26" transform="translate(362.97 -85.56) rotate(90)"/>
    <rect class="cls-5" x="142.64" y="66.67" width="162.96" height="10.51" rx="5.26" ry="5.26"/>
    <rect class="cls-5" x="142.64" y="162.27" width="162.96" height="10.51" rx="5.26" ry="5.26"/>
    <rect class="cls-5" x="137.53" y="210.07" width="162.96" height="10.51" rx="5.26" ry="5.26"/>
    <path class="cls-5" d="M143.15.15L7.96,27.34c-1.63.33-3.15,1.15-4.41,2.29-2.14,1.1-3.55,3.38-3.55,6.27v208.73c0,3.84,2.48,6.57,5.86,6.86.67.31,1.37.55,2.1.68l135.18,24.55c4.4.8,7.96-2.27,7.96-6.86V6.89c0-4.61-3.57-7.63-7.96-6.74Z"/>
    <path class="cls-2" d="M108.97,194.41c-2.73,0-5.25-1.46-6.62-3.82l-13.42-23.26c-6.36-10.36-10.36-17.08-14.17-24.17h-.36c-3.45,7.09-6.91,13.63-13.27,24.35l-12.55,22.92c-1.34,2.45-3.91,3.97-6.7,3.97h-.11c-5.95,0-9.61-6.5-6.54-11.59l28.07-46.46c1.46-2.41,1.47-5.43.03-7.85l-26.78-45.04c-3.03-5.09.64-11.54,6.57-11.54h.46c2.76,0,5.3,1.49,6.66,3.89l13.98,24.82c4.54,8,8,14.17,11.27,20.72h.55c3.45-7.27,6.54-12.9,11.09-20.72l14.51-24.92c1.37-2.35,3.88-3.79,6.6-3.79h0c6,0,9.66,6.6,6.48,11.69l-27.46,43.93c-1.53,2.45-1.55,5.55-.05,8.01l28.68,47.25c3.09,5.09-.58,11.6-6.53,11.6h-.37Z"/>
  </g>
  <g id="Layer_3" data-name="Layer 3">
    <path class="cls-1" d="M366.39,177.39h189.56c33.11,0,60,26.89,60,60v243.05c0,11.04-8.96,20-20,20h-229.56c-11.04,0-20-8.96-20-20V197.39c0-11.04,8.96-20,20-20Z"/>
    <rect class="cls-4" x="337.65" y="413.65" width="287.05" height="55.57" rx="10" ry="10"/>
    <text class="cls-3" transform="translate(422.71 462.14) scale(1.14 1)"><tspan x="0" y="0">PDF</tspan></text>
    <rect class="cls-8" x="357.71" y="251.12" width="246.93" height="21.08" rx="8.82" ry="8.82"/>
    <rect class="cls-8" x="357.71" y="305.3" width="246.93" height="21.08" rx="8.82" ry="8.82"/>
    <rect class="cls-8" x="357.71" y="359.47" width="246.93" height="21.08" rx="8.82" ry="8.82"/>
  </g>
  <g id="Layer_7" data-name="Layer 7">
    <rect class="cls-6" x="262.26" y="214.22" width="134.56" height="134.56" rx="20" ry="20"/>
  </g>
  <g id="Layer_8" data-name="Layer 8">
    <path class="cls-1" d="M373.78,324.95l-1.72-47.53c-.09-2.39-3.05-2.82-5.33-.77l-13.2,11.86-50.73-56.44c-.97-1.08-3.01-.81-4.57.58l-13.32,11.97c-1.56,1.4-2.03,3.41-1.07,4.48l50.73,56.44-13.2,11.86c-2.28,2.05-2.18,5.04.2,5.39l47.08,6.77c2.37.34,5.23-2.22,5.14-4.62Z"/>
  </g>
</svg>