<?xml version="1.0" encoding="UTF-8"?>
<svg xmlns="http://www.w3.org/2000/svg" viewBox="0 0 359.83 567.83">
  <defs>
    <style>
      .cls-1 {
        fill: #bac1e2;
      }

      .cls-2, .cls-3 {
        fill: #fff;
      }

      .cls-3 {
        stroke: #fff;
        stroke-miterlimit: 10;
        stroke-width: 10px;
      }

      .cls-4 {
        fill: #5a71b6;
      }
    </style>
  </defs>
  <g id="Layer_2" data-name="Layer 2">
    <path class="cls-1" d="M20,0h239.83c55.19,0,100,44.81,100,100v447.83c0,11.04-8.96,20-20,20H20c-11.04,0-20-8.96-20-20V20C0,8.96,8.96,0,20,0Z"/>
    <path class="cls-4" d="M0,424.85h359.83v122.98c0,11.04-8.96,20-20,20H20c-11.04,0-20-8.96-20-20v-122.98h0Z"/>
  </g>
  <g id="Layer_3" data-name="Layer 3">
    <g>
      <path class="cls-3" d="M100.94,442.91h2.68c3.05,0,5.52,2.47,5.52,5.52v65.57c0,28.21-13.87,36.88-32.15,36.88-3.03,0-6.45-.4-9.45-1.02s-4.85-3.45-4.31-6.4l.07-.38c.55-2.98,3.39-4.99,6.37-4.44,1.9.35,4.01.58,6.22.58,12.29,0,19.54-5.52,19.54-26.32v-64.47c0-3.05,2.47-5.52,5.52-5.52Z"/>
      <path class="cls-3" d="M131.99,448.93c0-2.78,2.06-5.11,4.82-5.47,5.85-.77,12.97-1.33,21.51-1.33,13.56,0,23.49,3.15,29.79,8.83,5.83,5.04,9.3,12.77,9.3,22.22s-2.84,17.18-8.2,22.7c-7.25,7.72-19.07,11.66-32.47,11.66-1.8,0-3.54-.03-5.19-.13-3.17-.19-5.85,2.32-5.85,5.5v30.72c0,3.05-2.47,5.52-5.52,5.52h-2.68c-3.05,0-5.52-2.47-5.52-5.52v-94.7ZM145.7,490.74c0,2.85,2.16,5.22,4.99,5.5,1.91.18,4.03.26,6.35.26,16.55,0,26.64-8.04,26.64-22.7s-9.93-20.81-25.06-20.81c-3.05,0-5.74.12-7.95.33-2.83.26-4.97,2.65-4.97,5.49v31.93Z"/>
      <path class="cls-3" d="M296.71,540.45c0,2.42-1.57,4.55-3.88,5.27-6.71,2.09-16.99,4.53-28.75,4.53-16.08,0-29.32-4.1-39.72-14.03-9.14-8.83-14.82-23.01-14.82-39.56.16-31.68,21.91-54.85,57.53-54.85,8.78,0,16.2,1.37,21.39,2.95,2.89.88,4.5,3.94,3.65,6.83l-.17.59c-.88,2.97-4.02,4.62-6.97,3.69-4.76-1.51-10.56-2.56-18.2-2.56-25.85,0-42.72,16.08-42.72,42.72s16.23,42.87,40.98,42.87c5.95,0,10.65-.55,14.06-1.38,2.48-.6,4.22-2.82,4.22-5.37v-22.25c0-3.05-2.47-5.52-5.52-5.52h-10.56c-3.05,0-5.52-2.47-5.52-5.52h0c0-3.05,2.47-5.52,5.52-5.52h23.96c3.05,0,5.52,2.47,5.52,5.52v41.58Z"/>
    </g>
  </g>
  <g id="Layer_1" data-name="Layer 1">
    <path class="cls-2" d="M55.3,161.36h249.23c11.04,0,20,8.96,20,20v179.95c0,2.76-2.24,5-5,5H39.3c-2.21,0-4-1.79-4-4v-180.95c0-11.04,8.96-20,20-20Z"/>
    <path class="cls-4" d="M323.85,359.8l-78.16-121.36c-1.6-2.48-5.12-2.48-6.72,0l-49.45,76.78-60.77-109.09c-1.62-2.92-5.69-2.92-7.31,0l-85.57,153.61c-1.62,2.92.41,6.56,3.66,6.56h280.96c3.23,0,5.15-3.73,3.36-6.51Z"/>
    <ellipse class="cls-4" cx="196.99" cy="206.29" rx="18.97" ry="19.58"/>
  </g>
</svg>