<?xml version="1.0" encoding="UTF-8"?>
<svg xmlns="http://www.w3.org/2000/svg" viewBox="0 0 550.25 560.87">
  <defs>
    <style>
      .cls-1 {
        font-family: MyriadPro-Regular, 'Myriad Pro';
        font-size: 95.24px;
      }

      .cls-1, .cls-2 {
        fill: #fff;
      }

      .cls-3 {
        fill: #ed1c24;
      }

      .cls-4 {
        fill: #65bc46;
      }

      .cls-5 {
        fill: #ededed;
      }
    </style>
  </defs>
  <g id="Layer_3" data-name="Layer 3">
    <path class="cls-2" d="M33.65,0h341.02c33.11,0,60,26.89,60,60v424.56c0,11.04-8.96,20-20,20H33.65c-11.04,0-20-8.96-20-20V20C13.65,8.96,22.62,0,33.65,0Z"/>
    <rect class="cls-3" y="368.99" width="448.33" height="86.8" rx="10" ry="10"/>
    <text class="cls-1" transform="translate(132.86 444.74) scale(1.14 1)"><tspan x="0" y="0">PDF</tspan></text>
    <rect class="cls-5" x="31.33" y="115.15" width="385.67" height="32.92" rx="8.82" ry="8.82"/>
    <rect class="cls-5" x="31.33" y="199.77" width="385.67" height="32.92" rx="8.82" ry="8.82"/>
    <rect class="cls-5" x="31.33" y="284.38" width="385.67" height="32.92" rx="8.82" ry="8.82"/>
  </g>
  <g id="Layer_7" data-name="Layer 7">
    <rect class="cls-4" x="340.08" y="350.71" width="210.16" height="210.16" rx="20" ry="20"/>
  </g>
  <g id="Layer_8" data-name="Layer 8">
    <path class="cls-2" d="M434.67,436.81l-1.31-36.12c-.07-1.82-2.32-2.14-4.05-.58l-10.03,9.01-38.55-42.9c-.73-.82-2.29-.62-3.47.44l-10.12,9.1c-1.18,1.06-1.55,2.59-.81,3.41l38.55,42.9-10.03,9.01c-1.74,1.56-1.65,3.83.15,4.09l35.78,5.15c1.8.26,3.97-1.69,3.91-3.51Z"/>
    <path class="cls-2" d="M434.47,469.23l-1.3,35.91c-.07,1.81-2.3,2.13-4.03.58l-9.97-8.96-38.32,42.64c-.73.81-2.28.62-3.45-.44l-10.06-9.04c-1.18-1.06-1.54-2.57-.81-3.39l38.32-42.64-9.97-8.96c-1.73-1.55-1.64-3.81.15-4.07l35.56-5.12c1.79-.26,3.95,1.68,3.88,3.49Z"/>
    <path class="cls-2" d="M460.41,472.58l1.24,34.21c.06,1.72,2.2,2.03,3.84.55l9.5-8.54,36.5,40.62c.7.77,2.17.59,3.29-.42l9.59-8.61c1.12-1.01,1.46-2.45.77-3.23l-36.5-40.62,9.5-8.54c1.64-1.48,1.57-3.63-.14-3.88l-33.88-4.87c-1.71-.25-3.76,1.6-3.7,3.32Z"/>
    <path class="cls-2" d="M458.82,436.57l1.3-35.87c.07-1.81,2.3-2.13,4.03-.58l9.96,8.95,38.28-42.6c.73-.81,2.27-.61,3.45.44l10.05,9.03c1.17,1.06,1.54,2.57.81,3.38l-38.28,42.6,9.96,8.95c1.72,1.55,1.64,3.81-.15,4.06l-35.53,5.11c-1.79.26-3.94-1.68-3.88-3.49Z"/>
  </g>
</svg>