<?xml version="1.0" encoding="UTF-8"?>
<svg xmlns="http://www.w3.org/2000/svg" viewBox="0 0 563.61 514.57">
  <defs>
    <style>
      .cls-1 {
        fill: #bac1e2;
      }

      .cls-2, .cls-3, .cls-4 {
        fill: #fff;
      }

      .cls-5 {
        fill: #ed1c24;
      }

      .cls-6 {
        fill: #65bc46;
      }

      .cls-3 {
        stroke: #fff;
        stroke-miterlimit: 10;
        stroke-width: 10px;
      }

      .cls-7 {
        fill: #ededed;
      }

      .cls-8 {
        fill: #5a71b6;
      }

      .cls-4 {
        font-family: MyriadPro-Regular, 'Myriad Pro';
        font-size: 60.98px;
      }
    </style>
  </defs>
  <g id="Layer_10" data-name="Layer 10">
    <path class="cls-1" d="M13.17,0h171.73c38.63,0,70,31.37,70,70v312.03c0,.55-.45,1-1,1H13.17c-.55,0-1-.45-1-1V1c0-.55.45-1,1-1Z"/>
    <path class="cls-8" d="M12.17,286.58h242.73v76.45c0,11.04-8.96,20-20,20H32.17c-11.04,0-20-8.96-20-20v-76.45h0Z"/>
    <g>
      <path class="cls-3" d="M80.26,298.76h1.81c2.06,0,3.72,1.67,3.72,3.72v44.23c0,19.03-9.36,24.88-21.69,24.88-2.04,0-4.35-.27-6.37-.69s-3.27-2.33-2.91-4.32l.05-.26c.37-2.01,2.29-3.37,4.29-2.99,1.28.24,2.7.39,4.2.39,8.29,0,13.18-3.72,13.18-17.76v-43.49c0-2.06,1.67-3.72,3.72-3.72Z"/>
      <path class="cls-3" d="M101.2,302.82c0-1.87,1.39-3.45,3.25-3.69,3.95-.52,8.75-.9,14.51-.9,9.14,0,15.84,2.13,20.1,5.95,3.93,3.4,6.27,8.61,6.27,14.99s-1.91,11.59-5.53,15.31c-4.89,5.21-12.87,7.87-21.9,7.87-1.21,0-2.39-.02-3.5-.09-2.14-.13-3.94,1.57-3.94,3.71v20.73c0,2.06-1.67,3.72-3.72,3.72h-1.81c-2.06,0-3.72-1.67-3.72-3.72v-63.88ZM110.45,331.03c0,1.92,1.46,3.52,3.37,3.71,1.29.12,2.72.18,4.29.18,11.16,0,17.97-5.42,17.97-15.31s-6.7-14.03-16.91-14.03c-2.06,0-3.87.08-5.36.22-1.91.18-3.36,1.79-3.36,3.7v21.54Z"/>
      <path class="cls-3" d="M212.31,364.56c0,1.63-1.06,3.07-2.62,3.55-4.53,1.41-11.46,3.06-19.39,3.06-10.85,0-19.78-2.76-26.79-9.46-6.17-5.95-9.99-15.52-9.99-26.69.11-21.37,14.78-37,38.81-37,5.92,0,10.93.92,14.43,1.99,1.95.6,3.04,2.66,2.46,4.61l-.12.4c-.59,2-2.71,3.12-4.7,2.49-3.21-1.02-7.12-1.72-12.28-1.72-17.44,0-28.81,10.85-28.81,28.81s10.95,28.92,27.64,28.92c4.01,0,7.18-.37,9.49-.93,1.67-.41,2.85-1.9,2.85-3.62v-15.01c0-2.06-1.67-3.72-3.72-3.72h-7.12c-2.06,0-3.72-1.67-3.72-3.72h0c0-2.06,1.67-3.72,3.72-3.72h16.16c2.06,0,3.72,1.67,3.72,3.72v28.05Z"/>
    </g>
    <path class="cls-2" d="M55.98,108.85h155.1c11.04,0,20,8.96,20,20v113.25c0,2.76-2.24,5-5,5H39.98c-2.21,0-4-1.79-4-4v-114.25c0-11.04,8.96-20,20-20Z"/>
    <path class="cls-8" d="M230.62,242.7l-52.72-81.86c-1.08-1.67-3.45-1.67-4.53,0l-33.36,51.79-40.99-73.59c-1.1-1.97-3.84-1.97-4.93,0l-57.72,103.62c-1.1,1.97.27,4.43,2.47,4.43h189.52c2.18,0,3.47-2.52,2.27-4.39Z"/>
    <ellipse class="cls-8" cx="120.74" cy="134.55" rx="12.8" ry="13.21"/>
  </g>
  <g id="Layer_3" data-name="Layer 3">
    <path class="cls-2" d="M305.31,191.51h189.56c33.11,0,60,26.89,60,60v243.05c0,11.04-8.96,20-20,20h-229.56c-11.04,0-20-8.96-20-20V211.51c0-11.04,8.96-20,20-20Z"/>
    <rect class="cls-5" x="276.56" y="427.77" width="287.05" height="55.57" rx="10" ry="10"/>
    <text class="cls-4" transform="translate(361.63 476.26) scale(1.14 1)"><tspan x="0" y="0">PDF</tspan></text>
    <rect class="cls-7" x="296.62" y="265.24" width="246.93" height="21.08" rx="8.82" ry="8.82"/>
    <rect class="cls-7" x="296.62" y="319.42" width="246.93" height="21.08" rx="8.82" ry="8.82"/>
    <rect class="cls-7" x="296.62" y="373.59" width="246.93" height="21.08" rx="8.82" ry="8.82"/>
  </g>
  <g id="Layer_7" data-name="Layer 7">
    <rect class="cls-6" x="209.28" y="218.48" width="134.56" height="134.56" rx="20" ry="20"/>
  </g>
  <g id="Layer_8" data-name="Layer 8">
    <path class="cls-2" d="M320.81,329.21l-1.72-47.53c-.09-2.39-3.05-2.82-5.33-.77l-13.2,11.86-50.73-56.44c-.97-1.08-3.01-.81-4.57.58l-13.32,11.97c-1.56,1.4-2.03,3.41-1.07,4.48l50.73,56.44-13.2,11.86c-2.28,2.05-2.18,5.04.2,5.39l47.08,6.77c2.37.34,5.23-2.22,5.14-4.62Z"/>
  </g>
</svg>