<?xml version="1.0" encoding="UTF-8"?>
<svg xmlns="http://www.w3.org/2000/svg" viewBox="0 0 639.94 578.45">
  <defs>
    <style>
      .cls-1 {
        fill: #1e6f42;
      }

      .cls-2 {
        fill: #fff;
        stroke: #fff;
        stroke-width: 15px;
      }

      .cls-2, .cls-3 {
        stroke-miterlimit: 10;
      }

      .cls-3 {
        fill: none;
        stroke: #1e6f42;
        stroke-width: 40px;
      }
    </style>
  </defs>
  <g id="Layer_3" data-name="Layer 3">
    <rect class="cls-3" x="234.84" y="44.79" width="385.1" height="488.86" rx="20" ry="20"/>
  </g>
  <g id="Layer_4" data-name="Layer 4">
    <rect class="cls-1" x="298.64" y="239.18" width="340.49" height="21.97" rx="9.6" ry="9.6"/>
    <rect class="cls-1" x="206.2" y="278.84" width="524.77" height="21.97" rx="9.6" ry="9.6" transform="translate(758.41 -178.77) rotate(90)"/>
    <rect class="cls-1" x="298.04" y="139.3" width="340.49" height="21.97" rx="9.6" ry="9.6"/>
    <rect class="cls-1" x="298.04" y="339.06" width="340.49" height="21.97" rx="9.6" ry="9.6"/>
    <rect class="cls-1" x="287.36" y="438.93" width="340.49" height="21.97" rx="9.6" ry="9.6"/>
  </g>
  <g id="Layer_1" data-name="Layer 1">
    <path class="cls-1" d="M299.09.32L16.64,57.13c-3.41.69-6.58,2.4-9.22,4.78-4.47,2.3-7.42,7.07-7.42,13.1v436.13c0,8.03,5.19,13.73,12.25,14.33,1.4.65,2.87,1.15,4.4,1.43l282.45,51.29c9.19,1.67,16.64-4.75,16.64-14.34V14.41c0-9.63-7.45-15.93-16.64-14.08Z"/>
  </g>
  <g id="Layer_2" data-name="Layer 2">
    <path class="cls-2" d="M227.68,406.2c-5.7,0-10.97-3.04-13.82-7.98l-28.05-48.59c-13.29-21.64-21.64-35.69-29.62-50.5h-.76c-7.21,14.81-14.43,28.48-27.72,50.88l-26.21,47.9c-2.8,5.12-8.17,8.3-14,8.3h-.22c-12.43,0-20.09-13.58-13.66-24.21l58.65-97.08c3.04-5.04,3.07-11.35.06-16.41l-55.95-94.1c-6.33-10.64,1.34-24.12,13.72-24.12h.97c5.76,0,11.08,3.11,13.91,8.13l29.22,51.87c9.49,16.71,16.71,29.62,23.54,43.29h1.14c7.21-15.19,13.67-26.96,23.16-43.29l30.32-52.06c2.86-4.91,8.11-7.93,13.79-7.93h0c12.54,0,20.18,13.79,13.53,24.42l-57.37,91.79c-3.19,5.11-3.24,11.59-.11,16.74l59.92,98.73c6.46,10.64-1.2,24.24-13.64,24.24h-.78Z"/>
  </g>
</svg>