<?xml version="1.0" encoding="UTF-8"?>
<svg xmlns="http://www.w3.org/2000/svg" viewBox="0 0 639.94 578.45">
  <defs>
    <style>
      .cls-1 {
        fill: none;
        stroke: #2b579b;
        stroke-width: 40px;
      }

      .cls-1, .cls-2 {
        stroke-miterlimit: 10;
      }

      .cls-3 {
        fill: #2b579b;
      }

      .cls-2 {
        fill: #fff;
        stroke: #fff;
        stroke-width: 15px;
      }
    </style>
  </defs>
  <g id="Layer_3" data-name="Layer 3">
    <rect class="cls-1" x="234.84" y="44.79" width="385.1" height="488.86" rx="20" ry="20"/>
  </g>
  <g id="Layer_4" data-name="Layer 4">
    <rect class="cls-3" x="286.77" y="278.24" width="281.24" height="21.97" rx="9.6" ry="9.6"/>
    <rect class="cls-3" x="286.77" y="345.92" width="281.24" height="21.97" rx="9.6" ry="9.6"/>
    <rect class="cls-3" x="286.77" y="210.56" width="281.24" height="21.97" rx="9.6" ry="9.6"/>
    <rect class="cls-3" x="286.77" y="142.88" width="281.24" height="21.97" rx="9.6" ry="9.6"/>
    <rect class="cls-3" x="286.77" y="413.6" width="281.24" height="21.97" rx="9.6" ry="9.6"/>
  </g>
  <g id="Layer_1" data-name="Layer 1">
    <path class="cls-3" d="M299.09.32L16.64,57.13c-3.41.69-6.58,2.4-9.22,4.78-4.47,2.3-7.42,7.07-7.42,13.1v436.13c0,8.03,5.19,13.73,12.25,14.33,1.4.65,2.87,1.15,4.4,1.43l282.45,51.29c9.19,1.67,16.64-4.75,16.64-14.34V14.41c0-9.63-7.45-15.93-16.64-14.08Z"/>
  </g>
  <g id="Layer_2" data-name="Layer 2">
    <path class="cls-2" d="M82.19,382.34l-45.63-179.86c-2.08-8.2,4.12-16.16,12.58-16.16h1.13c6.02,0,11.26,4.15,12.63,10.01l22.08,94.11c6.11,25.65,11.6,51.3,15.27,71.15h.61c3.36-20.46,9.77-44.89,16.79-71.45l24.93-94.16c1.51-5.69,6.66-9.65,12.54-9.65h7.57c6,0,11.22,4.11,12.62,9.95l22.65,94.48c5.8,24.43,11.3,48.86,14.35,70.54h.61c4.27-22.6,10.08-45.5,16.49-71.15l24.64-94.13c1.49-5.71,6.65-9.69,12.55-9.69h0c8.61,0,14.83,8.23,12.48,16.51l-50.97,179.86c-1.58,5.58-6.68,9.44-12.48,9.44h-7.77c-5.99,0-11.2-4.1-12.61-9.92l-23.55-97.26c-6.41-26.26-10.69-46.41-13.44-67.18h-.61c-3.66,20.46-8.24,40.61-15.88,67.18l-26.7,97.63c-1.54,5.64-6.67,9.55-12.51,9.55h-7.79c-5.94,0-11.12-4.03-12.58-9.78Z"/>
  </g>
</svg>