<?xml version="1.0" encoding="UTF-8"?>
<svg xmlns="http://www.w3.org/2000/svg" viewBox="0 0 624.76 496.99">
  <defs>
    <style>
      .cls-1 {
        fill: none;
        stroke: #2b579b;
        stroke-width: 40px;
      }

      .cls-1, .cls-2 {
        stroke-miterlimit: 10;
      }

      .cls-3, .cls-2, .cls-4 {
        fill: #fff;
      }

      .cls-5 {
        fill: #ed1c24;
      }

      .cls-6 {
        fill: #2b579b;
      }

      .cls-7 {
        fill: #65bc46;
      }

      .cls-2 {
        stroke: #fff;
        stroke-width: 15px;
      }

      .cls-8 {
        fill: #ededed;
      }

      .cls-4 {
        font-family: MyriadPro-Regular, 'Myriad Pro';
        font-size: 60.98px;
      }
    </style>
  </defs>
  <g id="Layer_9" data-name="Layer 9">
    <rect class="cls-1" x="114.49" y="27.13" width="187.75" height="238.33" rx="20" ry="20"/>
    <rect class="cls-6" x="139.81" y="140.95" width="137.11" height="10.71" rx="3.99" ry="3.99"/>
    <rect class="cls-6" x="139.81" y="173.94" width="137.11" height="10.71" rx="3.99" ry="3.99"/>
    <rect class="cls-6" x="139.81" y="107.95" width="137.11" height="10.71" rx="3.99" ry="3.99"/>
    <rect class="cls-6" x="139.81" y="74.95" width="137.11" height="10.71" rx="3.99" ry="3.99"/>
    <rect class="cls-6" x="139.81" y="206.94" width="137.11" height="10.71" rx="3.99" ry="3.99"/>
    <path class="cls-6" d="M145.82,5.45L8.11,33.15c-1.66.33-3.21,1.17-4.5,2.33-2.18,1.12-3.62,3.45-3.62,6.39v212.62c0,3.92,2.53,6.69,5.97,6.99.68.32,1.4.56,2.14.7l137.7,25c4.48.81,8.11-2.32,8.11-6.99V12.32c0-4.69-3.63-7.77-8.11-6.87Z"/>
    <path class="cls-2" d="M40.07,191.7l-22.25-87.69c-1.01-4,2.01-7.88,6.13-7.88h.55c2.94,0,5.49,2.02,6.16,4.88l10.76,45.88c2.98,12.5,5.66,25.01,7.44,34.69h.3c1.64-9.97,4.76-21.88,8.19-34.83l12.15-45.91c.73-2.77,3.24-4.71,6.11-4.71h3.69c2.93,0,5.47,2.01,6.15,4.85l11.04,46.06c2.83,11.91,5.51,23.82,7,34.39h.3c2.08-11.02,4.91-22.18,8.04-34.69l12.01-45.89c.73-2.78,3.24-4.72,6.12-4.72h0c4.2,0,7.23,4.01,6.09,8.05l-24.85,87.69c-.77,2.72-3.26,4.6-6.09,4.6h-3.79c-2.92,0-5.46-2-6.15-4.84l-11.48-47.42c-3.13-12.8-5.21-22.63-6.55-32.75h-.3c-1.79,9.97-4.02,19.8-7.74,32.75l-13.02,47.6c-.75,2.75-3.25,4.66-6.1,4.66h-3.8c-2.89,0-5.42-1.96-6.13-4.77Z"/>
  </g>
  <g id="Layer_3" data-name="Layer 3">
    <path class="cls-3" d="M366.45,173.94h189.56c33.11,0,60,26.89,60,60v243.05c0,11.04-8.96,20-20,20h-229.56c-11.04,0-20-8.96-20-20V193.94c0-11.04,8.96-20,20-20Z"/>
    <rect class="cls-5" x="337.71" y="410.19" width="287.05" height="55.57" rx="10" ry="10"/>
    <text class="cls-4" transform="translate(422.78 458.69) scale(1.14 1)"><tspan x="0" y="0">PDF</tspan></text>
    <rect class="cls-8" x="357.77" y="247.67" width="246.93" height="21.08" rx="8.82" ry="8.82"/>
    <rect class="cls-8" x="357.77" y="301.84" width="246.93" height="21.08" rx="8.82" ry="8.82"/>
    <rect class="cls-8" x="357.77" y="356.02" width="246.93" height="21.08" rx="8.82" ry="8.82"/>
  </g>
  <g id="Layer_7" data-name="Layer 7">
    <rect class="cls-7" x="261.97" y="190.92" width="134.56" height="134.56" rx="20" ry="20"/>
  </g>
  <g id="Layer_8" data-name="Layer 8">
    <path class="cls-3" d="M373.5,301.65l-1.72-47.53c-.09-2.39-3.05-2.82-5.33-.77l-13.2,11.86-50.73-56.44c-.97-1.08-3.01-.81-4.57.58l-13.32,11.97c-1.56,1.4-2.03,3.41-1.07,4.48l50.73,56.44-13.2,11.86c-2.28,2.05-2.18,5.04.2,5.39l47.08,6.77c2.37.34,5.23-2.22,5.14-4.62Z"/>
  </g>
</svg>