<?xml version="1.0" encoding="UTF-8"?>
<svg xmlns="http://www.w3.org/2000/svg" viewBox="0 0 572.07 561.84">
  <defs>
    <style>
      .cls-1, .cls-2 {
        fill: #fff;
      }

      .cls-3 {
        fill: #ed1c24;
      }

      .cls-4 {
        fill: #65bc46;
      }

      .cls-2 {
        font-family: MyriadPro-Regular, 'Myriad Pro';
        font-size: 60.98px;
      }

      .cls-5 {
        fill: #ededed;
      }
    </style>
  </defs>
  <g id="Layer_3" data-name="Layer 3">
    <path class="cls-1" d="M313.76,238.79h189.56c33.11,0,60,26.89,60,60v243.05c0,11.04-8.96,20-20,20h-229.56c-11.04,0-20-8.96-20-20v-283.05c0-11.04,8.96-20,20-20Z"/>
    <path class="cls-1" d="M28.74,0h189.56c33.11,0,60,26.89,60,60v243.05c0,11.04-8.96,20-20,20H28.74c-11.04,0-20-8.96-20-20V20C8.74,8.96,17.7,0,28.74,0Z"/>
    <rect class="cls-3" y="236.25" width="287.05" height="55.57" rx="10" ry="10"/>
    <text class="cls-2" transform="translate(85.06 284.75) scale(1.14 1)"><tspan x="0" y="0">PDF</tspan></text>
    <rect class="cls-5" x="20.06" y="73.73" width="246.93" height="21.08" rx="8.82" ry="8.82"/>
    <rect class="cls-5" x="20.06" y="127.9" width="246.93" height="21.08" rx="8.82" ry="8.82"/>
    <rect class="cls-5" x="20.06" y="182.08" width="246.93" height="21.08" rx="8.82" ry="8.82"/>
  </g>
  <g id="Layer_4" data-name="Layer 4">
    <rect class="cls-3" x="285.02" y="475.04" width="287.05" height="55.57" rx="10" ry="10"/>
    <text class="cls-2" transform="translate(370.09 523.53) scale(1.14 1)"><tspan x="0" y="0">PDF</tspan></text>
  </g>
  <g id="Layer_5" data-name="Layer 5">
    <rect class="cls-5" x="305.08" y="312.51" width="246.93" height="21.08" rx="8.82" ry="8.82"/>
    <rect class="cls-5" x="305.08" y="366.69" width="246.93" height="21.08" rx="8.82" ry="8.82"/>
    <rect class="cls-5" x="305.08" y="420.86" width="246.93" height="21.08" rx="8.82" ry="8.82"/>
  </g>
  <g id="Layer_7" data-name="Layer 7">
    <rect class="cls-4" x="217.74" y="224.54" width="134.56" height="134.56" rx="20" ry="20"/>
  </g>
  <g id="Layer_8" data-name="Layer 8">
    <path class="cls-1" d="M285.02,292.11l-1.01-27.73c-.05-1.4-1.78-1.64-3.11-.45l-7.7,6.92-29.59-32.92c-.56-.63-1.76-.48-2.67.34l-7.77,6.98c-.91.82-1.19,1.99-.62,2.61l29.59,32.92-7.7,6.92c-1.33,1.2-1.27,2.94.11,3.14l27.46,3.95c1.38.2,3.05-1.3,3-2.69Z"/>
    <path class="cls-1" d="M285.02,297.54l1.01,27.73c.05,1.4,1.78,1.64,3.11.45l7.7-6.92,29.59,32.92c.56.63,1.76.48,2.67-.34l7.77-6.98c.91-.82,1.19-1.99.62-2.61l-29.59-32.92,7.7-6.92c1.33-1.2,1.27-2.94-.11-3.14l-27.46-3.95c-1.38-.2-3.05,1.3-3,2.69Z"/>
  </g>
</svg>