<?xml version="1.0" encoding="UTF-8"?>
<svg xmlns="http://www.w3.org/2000/svg" viewBox="0 0 671.78 569.7">
  <defs>
    <style>
      .cls-1, .cls-2, .cls-3 {
        fill: #fff;
      }

      .cls-4 {
        fill: #ed1c24;
      }

      .cls-5 {
        fill: #1e6f42;
      }

      .cls-6 {
        fill: #65bc46;
      }

      .cls-2 {
        stroke: #fff;
        stroke-width: 15px;
      }

      .cls-2, .cls-7 {
        stroke-miterlimit: 10;
      }

      .cls-8 {
        fill: #ededed;
      }

      .cls-7 {
        fill: none;
        stroke: #1e6f42;
        stroke-width: 40px;
      }

      .cls-3 {
        font-family: MyriadPro-Regular, 'Myriad Pro';
        font-size: 60.98px;
      }
    </style>
  </defs>
  <g id="Layer_11" data-name="Layer 11">
    <rect class="cls-7" x="429.21" y="243.12" width="222.57" height="282.55" rx="20" ry="20"/>
    <rect class="cls-5" x="466.08" y="355.47" width="196.79" height="12.7" rx="6.35" ry="6.35"/>
    <rect class="cls-5" x="412.66" y="378.39" width="303.3" height="12.7" rx="6.35" ry="6.35" transform="translate(949.05 -179.57) rotate(90)"/>
    <rect class="cls-5" x="465.74" y="297.74" width="196.79" height="12.7" rx="6.35" ry="6.35"/>
    <rect class="cls-5" x="465.74" y="413.2" width="196.79" height="12.7" rx="6.35" ry="6.35"/>
    <rect class="cls-5" x="459.56" y="470.93" width="196.79" height="12.7" rx="6.35" ry="6.35"/>
    <path class="cls-5" d="M466.35,217.42l-163.25,32.83c-1.97.4-3.81,1.39-5.33,2.76-2.58,1.33-4.29,4.09-4.29,7.57v252.07c0,4.64,3,7.94,7.08,8.28.81.38,1.66.67,2.54.83l163.25,29.64c5.31.96,9.62-2.75,9.62-8.29V225.56c0-5.56-4.31-9.21-9.62-8.14Z"/>
    <path class="cls-2" d="M425.07,452.01c-3.3,0-6.34-1.76-7.99-4.61l-16.21-28.09c-7.68-12.51-12.51-20.63-17.12-29.19h-.44c-4.17,8.56-8.34,16.46-16.02,29.41l-15.15,27.68c-1.62,2.96-4.72,4.8-8.09,4.8h-.13c-7.18,0-11.61-7.85-7.9-13.99l33.9-56.11c1.76-2.91,1.77-6.56.03-9.48l-32.34-54.39c-3.66-6.15.78-13.94,7.93-13.94h.56c3.33,0,6.4,1.8,8.04,4.7l16.89,29.98c5.49,9.66,9.66,17.12,13.61,25.02h.66c4.17-8.78,7.9-15.58,13.39-25.02l17.52-30.09c1.65-2.84,4.69-4.58,7.97-4.58h0c7.24,0,11.66,7.97,7.82,14.11l-33.16,53.05c-1.85,2.95-1.87,6.7-.06,9.67l34.63,57.06c3.73,6.15-.69,14.01-7.89,14.01h-.45Z"/>
  </g>
  <g id="Layer_3" data-name="Layer 3">
    <path class="cls-1" d="M28.74,0h189.56c33.11,0,60,26.89,60,60v243.05c0,11.04-8.96,20-20,20H28.74c-11.04,0-20-8.96-20-20V20C8.74,8.96,17.7,0,28.74,0Z"/>
    <rect class="cls-4" y="236.25" width="287.05" height="55.57" rx="10" ry="10"/>
    <text class="cls-3" transform="translate(85.06 284.75) scale(1.14 1)"><tspan x="0" y="0">PDF</tspan></text>
    <rect class="cls-8" x="20.06" y="73.73" width="246.93" height="21.08" rx="8.82" ry="8.82"/>
    <rect class="cls-8" x="20.06" y="127.9" width="246.93" height="21.08" rx="8.82" ry="8.82"/>
    <rect class="cls-8" x="20.06" y="182.08" width="246.93" height="21.08" rx="8.82" ry="8.82"/>
  </g>
  <g id="Layer_7" data-name="Layer 7">
    <rect class="cls-6" x="217.74" y="224.54" width="134.56" height="134.56" rx="20" ry="20"/>
  </g>
  <g id="Layer_8" data-name="Layer 8">
    <path class="cls-1" d="M329.27,335.27l-1.72-47.53c-.09-2.39-3.05-2.82-5.33-.77l-13.2,11.86-50.73-56.44c-.97-1.08-3.01-.81-4.57.58l-13.32,11.97c-1.56,1.4-2.03,3.41-1.07,4.48l50.73,56.44-13.2,11.86c-2.28,2.05-2.18,5.04.2,5.39l47.08,6.77c2.37.34,5.23-2.22,5.14-4.62Z"/>
  </g>
</svg>